<svg width="267" height="62" viewBox="0 0 267 62" fill="none" xmlns="http://www.w3.org/2000/svg">
<path fill-rule="evenodd" clip-rule="evenodd" d="M24.5985 0C31.8791 0.497404 39.3632 2.19547 45.5997 7.11033C48.6218 8.13079 50.3644 11.9997 49.9354 15.7192C50.1595 24.3434 48.4539 33.002 45.4035 40.7334C42.6575 47.3367 38.6686 53.0887 33.8972 57.5868C32.2898 59.2437 28.2129 64.1164 27.3672 59.4768C27.7322 55.687 27.4316 51.9438 27.506 48.1299C27.4765 45.318 27.0927 42.2719 29.806 41.4725C33.665 38.8115 36.7191 33.827 36.5094 28.1711C36.4643 22.8832 33.7382 18.0675 29.9602 15.7265C26.6155 13.2077 22.6324 14.1325 18.9253 13.9025C14.0594 13.8803 9.19455 14.0313 4.33113 14.2039C1.44352 16.4386 -1.08295 10.0109 2.37034 8.88708C7.77515 3.72258 14.6299 1.56395 21.292 0.470134C22.3947 0.319253 23.4989 0.182677 24.5985 0ZM37.9545 33.9489C42.4067 33.8296 36.8863 41.8151 36.3619 36.3676C36.3229 35.2224 37.0751 34.1961 37.9545 33.9489ZM34.2881 39.4454C38.427 37.5249 35.59 47.4092 33.4576 42.5321C33.069 41.4193 33.601 40.1723 34.2881 39.4454ZM30.098 43.3253C34.3518 42.4416 30.2827 51.356 28.9011 46.183C28.6764 45.0303 29.2948 43.8588 30.098 43.3253Z" fill="#D84040"/>
<path fill-rule="evenodd" clip-rule="evenodd" d="M22.7655 25.5423C20.5091 24.8593 18.3053 26.1929 16.1243 26.6971C13.4921 27.9838 11.9895 31.5957 12.3024 35.0005C12.5108 39.0895 15.5876 42.5419 18.919 42.317C20.5656 42.162 23.0721 42.3189 22.769 45.1759C22.5558 47.7577 22.8193 50.3192 22.7654 52.9064C22.7621 55.8564 22.7185 58.8063 22.6346 61.7545C20.8428 62.7541 19.5305 60.4425 18.1547 59.4477C15.7048 57.8501 13.6267 55.4681 11.6452 53.0949C5.65863 45.6706 1.79806 35.8385 0.414352 25.5344C0.204962 24.0518 0.0570063 22.5547 0 21.0508C0.935316 18.9436 3.08561 20.0252 4.62414 19.9113C7.98611 19.6104 11.3833 19.7892 14.7594 19.7188C18.6566 19.7508 22.5645 19.7232 26.4522 20.0279C29.7185 20.7538 32.1942 24.7033 31.9432 28.7938C31.8888 33.0501 28.9814 37.128 25.4296 37.0908C23.0989 37.2635 20.7496 37.0911 18.4247 37.1148C16.027 36.5109 15.7501 31.5569 18.4493 31.2396C20.1163 30.512 23.0347 30.9394 22.7494 33.7134C23.9596 36.1454 27.4417 35.2473 27.1131 32.0752C26.9838 29.9148 27.9997 26.3643 25.5698 25.6809C24.6506 25.416 23.6993 25.5275 22.7655 25.5423Z" fill="#D84040"/>
<path d="M75.016 54V9.2H93.448C97.416 9.2 100.808 9.84 103.624 11.12C106.483 12.4 108.68 14.2347 110.216 16.624C111.752 19.0133 112.52 21.8507 112.52 25.136C112.52 28.4213 111.752 31.2587 110.216 33.648C108.68 36.0373 106.483 37.872 103.624 39.152C100.808 40.432 97.416 41.072 93.448 41.072H79.624L83.336 37.168V54H75.016ZM83.336 38.064L79.624 34.032H93.064C96.7333 34.032 99.4853 33.264 101.32 31.728C103.197 30.1493 104.136 27.952 104.136 25.136C104.136 22.2773 103.197 20.08 101.32 18.544C99.4853 17.008 96.7333 16.24 93.064 16.24H79.624L83.336 12.144V38.064ZM140.804 54V47.088L140.356 45.616V33.52C140.356 31.1733 139.652 29.36 138.244 28.08C136.836 26.7573 134.703 26.096 131.844 26.096C129.924 26.096 128.025 26.3947 126.148 26.992C124.313 27.5893 122.756 28.4213 121.476 29.488L118.34 23.664C120.175 22.256 122.351 21.2107 124.868 20.528C127.428 19.8027 130.073 19.44 132.804 19.44C137.753 19.44 141.572 20.6347 144.26 23.024C146.991 25.3707 148.356 29.0187 148.356 33.968V54H140.804ZM130.052 54.448C127.492 54.448 125.252 54.0213 123.332 53.168C121.412 52.272 119.919 51.056 118.852 49.52C117.828 47.9413 117.316 46.1707 117.316 44.208C117.316 42.288 117.764 40.56 118.66 39.024C119.599 37.488 121.113 36.272 123.204 35.376C125.295 34.48 128.068 34.032 131.524 34.032H141.444V39.344H132.1C129.369 39.344 127.535 39.792 126.596 40.688C125.657 41.5413 125.188 42.608 125.188 43.888C125.188 45.3387 125.764 46.4907 126.916 47.344C128.068 48.1973 129.668 48.624 131.716 48.624C133.679 48.624 135.428 48.176 136.964 47.28C138.543 46.384 139.673 45.0613 140.356 43.312L141.7 48.112C140.932 50.1173 139.545 51.6747 137.54 52.784C135.577 53.8933 133.081 54.448 130.052 54.448ZM158.623 54V19.824H166.239V29.232L165.343 26.48C166.367 24.176 167.967 22.4267 170.143 21.232C172.362 20.0373 175.114 19.44 178.399 19.44V27.056C178.058 26.9707 177.738 26.928 177.439 26.928C177.14 26.8853 176.842 26.864 176.543 26.864C173.514 26.864 171.103 27.76 169.311 29.552C167.519 31.3013 166.623 33.9253 166.623 37.424V54H158.623ZM196.058 54.448C193.199 54.448 190.447 54.0853 187.802 53.36C185.199 52.592 183.13 51.6747 181.594 50.608L184.666 44.528C186.202 45.5093 188.037 46.32 190.17 46.96C192.303 47.6 194.437 47.92 196.57 47.92C199.087 47.92 200.901 47.5787 202.01 46.896C203.162 46.2133 203.738 45.296 203.738 44.144C203.738 43.2053 203.354 42.5013 202.586 42.032C201.818 41.52 200.815 41.136 199.578 40.88C198.341 40.624 196.954 40.3893 195.418 40.176C193.925 39.9627 192.41 39.6853 190.874 39.344C189.381 38.96 188.015 38.4267 186.778 37.744C185.541 37.0187 184.538 36.0587 183.77 34.864C183.002 33.6693 182.618 32.0907 182.618 30.128C182.618 27.952 183.237 26.0747 184.474 24.496C185.711 22.8747 187.439 21.6373 189.658 20.784C191.919 19.888 194.586 19.44 197.658 19.44C199.962 19.44 202.287 19.696 204.634 20.208C206.981 20.72 208.922 21.4453 210.458 22.384L207.386 28.464C205.765 27.4827 204.122 26.8213 202.458 26.48C200.837 26.096 199.215 25.904 197.594 25.904C195.162 25.904 193.349 26.2667 192.154 26.992C191.002 27.7173 190.426 28.6347 190.426 29.744C190.426 30.768 190.81 31.536 191.578 32.048C192.346 32.56 193.349 32.9653 194.586 33.264C195.823 33.5627 197.189 33.8187 198.682 34.032C200.218 34.2027 201.733 34.48 203.226 34.864C204.719 35.248 206.085 35.7813 207.322 36.464C208.602 37.104 209.626 38.0213 210.394 39.216C211.162 40.4107 211.546 41.968 211.546 43.888C211.546 46.0213 210.906 47.8773 209.626 49.456C208.389 51.0347 206.618 52.272 204.314 53.168C202.01 54.0213 199.258 54.448 196.058 54.448ZM212.867 54L233.028 9.2H241.22L261.444 54H252.74L235.396 13.616H238.724L221.444 54H212.867ZM222.148 43.632L224.388 37.104H248.58L250.819 43.632H222.148Z" fill="#EAE8E8" fill-opacity="0.8"/>
</svg>
