<svg width="270" height="62" viewBox="0 0 270 62" fill="none" xmlns="http://www.w3.org/2000/svg">
<path d="M76.016 54V9.2H94.448C98.416 9.2 101.808 9.84 104.624 11.12C107.483 12.4 109.68 14.2347 111.216 16.624C112.752 19.0133 113.52 21.8507 113.52 25.136C113.52 28.4213 112.752 31.2587 111.216 33.648C109.68 36.0373 107.483 37.872 104.624 39.152C101.808 40.432 98.416 41.072 94.448 41.072H80.624L84.336 37.168V54H76.016ZM84.336 38.064L80.624 34.032H94.064C97.7333 34.032 100.485 33.264 102.32 31.728C104.197 30.1493 105.136 27.952 105.136 25.136C105.136 22.2773 104.197 20.08 102.32 18.544C100.485 17.008 97.7333 16.24 94.064 16.24H80.624L84.336 12.144V38.064ZM141.804 54V47.088L141.356 45.616V33.52C141.356 31.1733 140.652 29.36 139.244 28.08C137.836 26.7573 135.703 26.096 132.844 26.096C130.924 26.096 129.025 26.3947 127.148 26.992C125.313 27.5893 123.756 28.4213 122.476 29.488L119.34 23.664C121.175 22.256 123.351 21.2107 125.868 20.528C128.428 19.8027 131.073 19.44 133.804 19.44C138.753 19.44 142.572 20.6347 145.26 23.024C147.991 25.3707 149.356 29.0187 149.356 33.968V54H141.804ZM131.052 54.448C128.492 54.448 126.252 54.0213 124.332 53.168C122.412 52.272 120.919 51.056 119.852 49.52C118.828 47.9413 118.316 46.1707 118.316 44.208C118.316 42.288 118.764 40.56 119.66 39.024C120.599 37.488 122.113 36.272 124.204 35.376C126.295 34.48 129.068 34.032 132.524 34.032H142.444V39.344H133.1C130.369 39.344 128.535 39.792 127.596 40.688C126.657 41.5413 126.188 42.608 126.188 43.888C126.188 45.3387 126.764 46.4907 127.916 47.344C129.068 48.1973 130.668 48.624 132.716 48.624C134.679 48.624 136.428 48.176 137.964 47.28C139.543 46.384 140.673 45.0613 141.356 43.312L142.7 48.112C141.932 50.1173 140.545 51.6747 138.54 52.784C136.577 53.8933 134.081 54.448 131.052 54.448ZM159.623 54V19.824H167.239V29.232L166.343 26.48C167.367 24.176 168.967 22.4267 171.143 21.232C173.362 20.0373 176.114 19.44 179.399 19.44V27.056C179.058 26.9707 178.738 26.928 178.439 26.928C178.14 26.8853 177.842 26.864 177.543 26.864C174.514 26.864 172.103 27.76 170.311 29.552C168.519 31.3013 167.623 33.9253 167.623 37.424V54H159.623ZM197.058 54.448C194.199 54.448 191.447 54.0853 188.802 53.36C186.199 52.592 184.13 51.6747 182.594 50.608L185.666 44.528C187.202 45.5093 189.037 46.32 191.17 46.96C193.303 47.6 195.437 47.92 197.57 47.92C200.087 47.92 201.901 47.5787 203.01 46.896C204.162 46.2133 204.738 45.296 204.738 44.144C204.738 43.2053 204.354 42.5013 203.586 42.032C202.818 41.52 201.815 41.136 200.578 40.88C199.341 40.624 197.954 40.3893 196.418 40.176C194.925 39.9627 193.41 39.6853 191.874 39.344C190.381 38.96 189.015 38.4267 187.778 37.744C186.541 37.0187 185.538 36.0587 184.77 34.864C184.002 33.6693 183.618 32.0907 183.618 30.128C183.618 27.952 184.237 26.0747 185.474 24.496C186.711 22.8747 188.439 21.6373 190.658 20.784C192.919 19.888 195.586 19.44 198.658 19.44C200.962 19.44 203.287 19.696 205.634 20.208C207.981 20.72 209.922 21.4453 211.458 22.384L208.386 28.464C206.765 27.4827 205.122 26.8213 203.458 26.48C201.837 26.096 200.215 25.904 198.594 25.904C196.162 25.904 194.349 26.2667 193.154 26.992C192.002 27.7173 191.426 28.6347 191.426 29.744C191.426 30.768 191.81 31.536 192.578 32.048C193.346 32.56 194.349 32.9653 195.586 33.264C196.823 33.5627 198.189 33.8187 199.682 34.032C201.218 34.2027 202.733 34.48 204.226 34.864C205.719 35.248 207.085 35.7813 208.322 36.464C209.602 37.104 210.626 38.0213 211.394 39.216C212.162 40.4107 212.546 41.968 212.546 43.888C212.546 46.0213 211.906 47.8773 210.626 49.456C209.389 51.0347 207.618 52.272 205.314 53.168C203.01 54.0213 200.258 54.448 197.058 54.448ZM213.867 54L234.028 9.2H242.22L262.444 54H253.74L236.396 13.616H239.724L222.444 54H213.867ZM223.148 43.632L225.388 37.104H249.58L251.819 43.632H223.148Z" fill="#181717"/>
<path fill-rule="evenodd" clip-rule="evenodd" d="M24.5985 0C31.8791 0.497404 39.3632 2.19547 45.5997 7.11033C48.6218 8.13079 50.3644 11.9997 49.9354 15.7192C50.1595 24.3434 48.4539 33.002 45.4035 40.7334C42.6575 47.3367 38.6686 53.0887 33.8972 57.5868C32.2898 59.2437 28.2129 64.1164 27.3672 59.4768C27.7322 55.687 27.4316 51.9438 27.506 48.1299C27.4765 45.318 27.0927 42.2719 29.806 41.4725C33.665 38.8115 36.7191 33.827 36.5094 28.1711C36.4643 22.8832 33.7382 18.0675 29.9602 15.7265C26.6155 13.2077 22.6324 14.1325 18.9253 13.9025C14.0594 13.8803 9.19455 14.0313 4.33113 14.2039C1.44352 16.4386 -1.08295 10.0109 2.37034 8.88708C7.77515 3.72258 14.6299 1.56395 21.292 0.470134C22.3947 0.319253 23.4989 0.182677 24.5985 0ZM37.9545 33.9489C42.4067 33.8296 36.8863 41.8151 36.3619 36.3676C36.3229 35.2224 37.0751 34.1961 37.9545 33.9489ZM34.2881 39.4454C38.427 37.5249 35.59 47.4092 33.4576 42.5321C33.069 41.4193 33.601 40.1723 34.2881 39.4454ZM30.098 43.3253C34.3518 42.4416 30.2827 51.356 28.9011 46.183C28.6764 45.0303 29.2948 43.8588 30.098 43.3253Z" fill="#C1322C"/>
<path fill-rule="evenodd" clip-rule="evenodd" d="M22.7655 25.5423C20.5091 24.8593 18.3053 26.1929 16.1243 26.6971C13.4921 27.9838 11.9895 31.5957 12.3024 35.0005C12.5108 39.0895 15.5876 42.5419 18.919 42.317C20.5656 42.162 23.0721 42.3189 22.769 45.1759C22.5558 47.7577 22.8193 50.3192 22.7654 52.9064C22.7621 55.8564 22.7185 58.8063 22.6346 61.7545C20.8428 62.7541 19.5305 60.4425 18.1547 59.4477C15.7048 57.8501 13.6267 55.4681 11.6452 53.0949C5.65863 45.6706 1.79806 35.8385 0.414352 25.5344C0.204962 24.0518 0.0570063 22.5547 0 21.0508C0.935316 18.9436 3.08561 20.0252 4.62414 19.9113C7.98611 19.6104 11.3833 19.7892 14.7594 19.7188C18.6566 19.7508 22.5645 19.7232 26.4522 20.0279C29.7185 20.7538 32.1942 24.7033 31.9432 28.7938C31.8888 33.0501 28.9814 37.128 25.4296 37.0908C23.0989 37.2635 20.7496 37.0911 18.4247 37.1148C16.027 36.5109 15.7501 31.5569 18.4493 31.2396C20.1163 30.512 23.0347 30.9394 22.7494 33.7134C23.9596 36.1454 27.4417 35.2473 27.1131 32.0752C26.9838 29.9148 27.9997 26.3643 25.5698 25.6809C24.6506 25.416 23.6993 25.5275 22.7655 25.5423Z" fill="#C1322C"/>
</svg>
